<?xml version="1.0" standalone="no"?>
<!DOCTYPE svg PUBLIC "-//W3C//DTD SVG 20010904//EN"
 "http://www.w3.org/TR/2001/REC-SVG-20010904/DTD/svg10.dtd">
<svg version="1.0" xmlns="http://www.w3.org/2000/svg"
 width="420.000000pt" height="280.000000pt" viewBox="0 0 420.000000 280.000000"
 preserveAspectRatio="xMidYMid meet">
<metadata>
Created by potrace 1.16, written by Peter Selinger 2001-2019
</metadata>
<g transform="translate(0.000000,280.000000) scale(0.100000,-0.100000)"
fill="#000000" stroke="none">
<path d="M2030 2244 c-63 -41 -119 -79 -123 -83 -5 -5 21 -56 58 -114 37 -58
64 -110 61 -116 -10 -15 -95 -62 -104 -57 -4 2 -37 50 -72 105 -36 56 -70 99
-77 97 -6 -3 -61 -37 -123 -77 -106 -68 -110 -72 -97 -93 8 -11 78 -121 157
-244 105 -164 147 -221 158 -217 8 3 121 74 251 157 130 83 259 166 288 185
l52 33 -108 168 c-59 92 -108 174 -108 182 0 17 -82 150 -92 149 -3 0 -58 -34
-121 -75z"/>
<path d="M940 2095 c-63 -41 -115 -78 -115 -82 0 -11 56 -103 62 -103 12 0
243 152 243 160 0 16 -55 99 -65 99 -5 0 -62 -33 -125 -74z"/>
<path d="M2211 886 c-47 -17 -108 -70 -130 -115 -81 -158 31 -341 208 -341
185 0 295 186 206 348 -54 99 -179 146 -284 108z m144 -161 c46 -45 28 -119
-34 -145 -26 -10 -36 -9 -68 6 -59 29 -70 97 -23 144 29 29 94 27 125 -5z"/>
</g>
</svg>
